<svg width="62" height="62" viewBox="0 0 62 62" fill="none" xmlns="http://www.w3.org/2000/svg">
<path d="M26.6257 3.51546H22.3312C19.4861 3.51546 17.1778 5.82373 17.1778 8.66881V20.6933C17.1778 24.4832 20.2591 27.5644 24.049 27.5644H37.7912C41.5811 27.5644 44.6624 24.4832 44.6624 20.6933V8.66881C44.6624 5.82373 42.3541 3.51546 39.509 3.51546H35.2146V12.1044C35.2146 13.0492 34.4416 13.8222 33.4968 13.8222H28.3434C27.3987 13.8222 26.6257 13.0492 26.6257 12.1044V3.51546ZM6.87114 31C3.08128 31 9.53674e-06 34.0813 9.53674e-06 37.8711V51.6134C9.53674e-06 55.4033 3.08128 58.4845 6.87114 58.4845H24.049C27.8388 58.4845 30.9201 55.4033 30.9201 51.6134V37.8711C30.9201 34.0813 27.8388 31 24.049 31H19.7545V39.5889C19.7545 40.5337 18.9815 41.3067 18.0367 41.3067H12.8834C11.9386 41.3067 11.1656 40.5337 11.1656 39.5889V31H6.87114ZM37.7912 58.4845H54.9691C58.7589 58.4845 61.8402 55.4033 61.8402 51.6134V37.8711C61.8402 34.0813 58.7589 31 54.9691 31H50.6746V39.5889C50.6746 40.5337 49.9016 41.3067 48.9568 41.3067H43.8035C42.8587 41.3067 42.0857 40.5337 42.0857 39.5889V31H37.7912C36.1808 31 34.6992 31.5475 33.529 32.4816C34.0551 33.5981 34.3557 34.8435 34.3557 36.1533V53.3312C34.3557 54.641 34.0551 55.8864 33.529 57.0029C34.6992 57.937 36.1808 58.4845 37.7912 58.4845Z" fill="white"/>
</svg>
