<svg width="62" height="56" viewBox="0 0 62 56" fill="none" xmlns="http://www.w3.org/2000/svg">
<path d="M43.1271 0.521347C41.2187 0.521347 39.6769 2.05918 39.6769 3.96266C39.6769 5.86614 41.2187 7.40397 43.1271 7.40397H46.2322L34.4369 16.8138L22.7709 8.09223C21.5094 7.14587 19.7735 7.17814 18.5444 8.15676L1.29333 21.922C-0.194574 23.105 -0.431776 25.2773 0.754232 26.7614C1.94024 28.2454 4.11818 28.482 5.60608 27.2991L20.7654 15.2007L32.4314 23.9223C33.6929 24.8686 35.4288 24.8364 36.6579 23.8577L51.7526 11.8132V16.0073C51.7526 17.9107 53.2944 19.4486 55.2028 19.4486C57.1112 19.4486 58.653 17.9107 58.653 16.0073V3.96266C58.653 2.05918 57.1112 0.521347 55.2028 0.521347H43.1271ZM20.7007 24.6105C18.7923 24.6105 17.2505 26.1484 17.2505 28.0518V48.6997C17.2505 50.6032 18.7923 52.141 20.7007 52.141C22.6091 52.141 24.1509 50.6032 24.1509 48.6997V28.0518C24.1509 26.1484 22.6091 24.6105 20.7007 24.6105ZM6.89991 34.9345C4.99152 34.9345 3.4497 36.4723 3.4497 38.3758V48.6997C3.4497 50.6032 4.99152 52.141 6.89991 52.141C8.8083 52.141 10.3501 50.6032 10.3501 48.6997V38.3758C10.3501 36.4723 8.8083 34.9345 6.89991 34.9345ZM46.5773 55.5823C50.695 55.5823 54.6441 53.9508 57.5557 51.0466C60.4674 48.1425 62.1032 44.2036 62.1032 40.0964C62.1032 35.9893 60.4674 32.0504 57.5557 29.1463C54.6441 26.2421 50.695 24.6105 46.5773 24.6105C42.4595 24.6105 38.5105 26.2421 35.5988 29.1463C32.6871 32.0504 31.0513 35.9893 31.0513 40.0964C31.0513 44.2036 32.6871 48.1425 35.5988 51.0466C38.5105 53.9508 42.4595 55.5823 46.5773 55.5823ZM44.0004 36.9778V36.9885C44.0004 37.0315 44.0004 37.1928 44.5179 37.4724C45.1217 37.7951 45.9735 38.0317 47.0948 38.3543H47.1164C48.1191 38.6339 49.3913 38.9995 50.4048 39.591C51.5046 40.2362 52.5612 41.3224 52.6151 43.0646C52.669 45.0218 51.5693 46.3338 50.2755 47.0328C49.6501 47.3662 48.9708 47.5813 48.3024 47.6996V48.861C48.3024 49.8074 47.5261 50.5817 46.5773 50.5817C45.6285 50.5817 44.8522 49.8074 44.8522 48.861V47.6351C43.9249 47.4522 43.0516 47.1726 42.2969 46.9253C42.1136 46.8608 41.9303 46.807 41.7578 46.7532C40.8521 46.4736 40.3345 45.5058 40.6257 44.6024C40.9168 43.6991 41.8764 43.1829 42.782 43.4732C42.9977 43.5378 43.2025 43.6023 43.4074 43.6668C44.6365 44.054 45.6069 44.3658 46.6312 44.3981C47.3536 44.4196 48.1191 44.2798 48.6258 44.0109C48.863 43.8819 48.9924 43.7528 49.0571 43.656C49.111 43.57 49.1757 43.4302 49.1649 43.1721C49.1649 43.0216 49.1434 42.8495 48.6582 42.5699C48.0867 42.2365 47.2673 41.9892 46.1568 41.6773L45.9627 41.6235C45.0031 41.3547 43.8279 41.0213 42.8791 40.5159C41.8117 39.9459 40.658 38.935 40.5502 37.2143C40.4208 35.1926 41.6284 33.8913 42.9006 33.2138C43.5152 32.8804 44.1945 32.6654 44.8414 32.5363V31.4932C44.8414 30.5468 45.6177 29.7725 46.5665 29.7725C47.5153 29.7725 48.2916 30.5468 48.2916 31.4932V32.504C48.9708 32.6008 49.6178 32.7514 50.2215 32.9019C51.1488 33.1278 51.7094 34.0634 51.483 34.9882C51.2566 35.9131 50.3186 36.4723 49.3913 36.2465C48.3886 35.9991 47.429 35.8163 46.5449 35.8056C45.8764 35.7948 45.0786 35.9454 44.5287 36.2357C44.2699 36.3755 44.1406 36.5046 44.0759 36.6014C44.0327 36.6766 43.9788 36.7734 43.9896 36.9885L44.0004 36.9778Z" fill="white"/>
</svg>
